<svg width="1024" height="1024" viewBox="0 0 1024 1024" fill="none" xmlns="http://www.w3.org/2000/svg">
<rect width="1024" height="1024" fill="#B85042"/>
<rect x="190" y="191.197" width="575.487" height="706.803" rx="14" stroke="white" stroke-width="4"/>
<rect x="219.411" y="219.834" width="514.272" height="635.067" stroke="white" stroke-width="7"/>
<path d="M434.484 397.518C432.095 397.518 430.431 396.28 429.492 393.806C428.554 391.331 427.786 388.003 427.188 383.822L426.804 380.622C425.524 373.795 424.5 367.011 423.732 360.27C422.964 353.443 422.196 345.208 421.428 335.566L420.66 326.094C415.54 326.179 408.244 325.966 398.772 325.454L396.212 325.326C395.018 325.24 394.164 324.686 393.652 323.662C393.226 322.552 393.012 321.059 393.012 319.182H401.844C416.692 319.182 430.09 319.736 442.036 320.846C453.983 321.955 459.956 324.216 459.956 327.63C459.956 328.568 459.786 329.208 459.444 329.55C459.188 329.891 458.591 330.062 457.652 330.062C454.239 329.806 448.948 329.08 441.78 327.886C440.159 327.63 438.196 327.331 435.892 326.99C433.588 326.648 430.986 326.307 428.084 325.966C428.084 338.339 429.919 357.368 433.588 383.054C433.759 384.334 434.356 386.168 435.38 388.558C435.807 389.582 436.191 390.691 436.532 391.886C436.959 392.995 437.172 394.019 437.172 394.958C437.172 396.152 437.002 396.878 436.66 397.134C436.319 397.39 435.892 397.518 435.38 397.518C434.954 397.518 434.655 397.518 434.484 397.518ZM489.678 397.518C484.644 397.518 480.078 396.408 475.982 394.19C471.972 391.886 468.814 388.728 466.51 384.718C464.292 380.622 463.182 375.971 463.182 370.766C463.182 362.232 466.297 355.875 472.526 351.694C478.841 347.512 486.564 345.422 495.694 345.422C499.876 345.422 503.758 346.446 507.342 348.494C511.012 350.542 513.956 353.486 516.174 357.326C518.393 361.166 519.502 365.603 519.502 370.638C519.502 376.099 518.094 380.878 515.278 384.974C512.462 388.984 508.75 392.099 504.142 394.318C499.62 396.451 494.798 397.518 489.678 397.518ZM488.27 390.222C496.206 390.222 502.222 388.43 506.318 384.846C510.414 381.262 512.462 376.014 512.462 369.102C512.462 364.408 510.841 360.355 507.598 356.942C504.441 353.528 500.004 351.822 494.286 351.822C490.446 351.822 486.564 352.547 482.638 353.998C478.713 355.448 475.47 357.624 472.91 360.526C470.35 363.427 469.07 366.926 469.07 371.022C469.07 374.435 469.924 377.635 471.63 380.622C473.337 383.523 475.641 385.87 478.542 387.662C481.529 389.368 484.772 390.222 488.27 390.222Z" fill="white"/>
<path d="M404.245 603.732C404.245 602.708 404.33 601.94 404.501 601.428C404.757 600.831 405.312 600.532 406.165 600.532C406.933 600.532 407.786 600.703 408.725 601.044C409.749 601.385 410.73 601.769 411.669 602.196C414.058 603.22 416.192 603.988 418.069 604.5C420.032 605.012 422.464 605.268 425.365 605.268C435.946 605.268 443.882 602.751 449.173 597.716C454.549 592.681 457.237 586.111 457.237 578.004C457.237 570.751 455.189 564.393 451.093 558.932C446.997 553.385 441.792 549.033 435.477 545.876C429.248 542.719 422.89 540.841 416.405 540.244L423.701 594.388C423.701 595.839 423.488 597.033 423.061 597.972C422.72 598.911 421.866 599.38 420.501 599.38C420.16 599.551 419.52 597.247 418.581 592.468C417.642 587.689 416.362 580.649 414.741 571.348C412.864 560.511 411.413 552.489 410.389 547.284C409.365 541.993 408.554 538.964 407.957 538.196C400.874 538.196 395.072 538.58 390.549 539.348C386.026 540.031 382.57 540.841 380.181 541.78C377.792 542.719 376.81 543.188 377.237 543.188C376.81 543.017 376.512 542.761 376.341 542.42C376.17 541.993 376.042 541.396 375.957 540.628C375.786 539.86 375.658 539.305 375.573 538.964C375.573 536.916 377.408 535.295 381.077 534.1C384.746 532.905 388.586 532.095 392.597 531.668C396.693 531.241 399.424 531.028 400.789 531.028C409.92 531.028 419.434 532.905 429.333 536.66C439.232 540.329 447.552 545.748 454.293 552.916C461.034 560.084 464.405 568.575 464.405 578.388C464.405 585.727 462.57 591.999 458.901 597.204C455.232 602.324 450.41 606.207 444.437 608.852C438.549 611.497 432.234 612.82 425.493 612.82C420.032 612.82 415.125 611.967 410.773 610.26C406.421 608.553 404.245 606.377 404.245 603.732ZM503.749 611.54C498.714 611.54 494.149 610.431 490.053 608.212C486.042 605.908 482.885 602.751 480.581 598.74C478.362 594.644 477.253 589.993 477.253 584.788C477.253 576.255 480.368 569.897 486.597 565.716C492.912 561.535 500.634 559.444 509.765 559.444C513.946 559.444 517.829 560.468 521.413 562.516C525.082 564.564 528.026 567.508 530.245 571.348C532.464 575.188 533.573 579.625 533.573 584.66C533.573 590.121 532.165 594.9 529.349 598.996C526.533 603.007 522.821 606.121 518.213 608.34C513.69 610.473 508.869 611.54 503.749 611.54ZM502.341 604.244C510.277 604.244 516.293 602.452 520.389 598.868C524.485 595.284 526.533 590.036 526.533 583.124C526.533 578.431 524.912 574.377 521.669 570.964C518.512 567.551 514.074 565.844 508.357 565.844C504.517 565.844 500.634 566.569 496.709 568.02C492.784 569.471 489.541 571.647 486.981 574.548C484.421 577.449 483.141 580.948 483.141 585.044C483.141 588.457 483.994 591.657 485.701 594.644C487.408 597.545 489.712 599.892 492.613 601.684C495.6 603.391 498.842 604.244 502.341 604.244Z" fill="white"/>
<ellipse cx="245.451" cy="457.902" rx="13.2305" ry="14.4682" fill="white"/>
<path d="M444.658 775.792C440.22 775.792 436.359 775.024 433.074 773.488C429.831 771.909 428.21 769.157 428.21 765.232C428.21 763.824 428.636 762.458 429.49 761.136C430.343 759.813 431.602 758.746 433.266 757.936C434.93 757.082 436.956 756.656 439.346 756.656C441.18 756.656 442.738 756.741 444.018 756.912C445.298 757.082 446.77 757.552 448.434 758.32C450.098 759.088 451.826 760.304 453.618 761.968C452.935 759.024 451.911 756.442 450.546 754.224C449.18 752.005 447.644 750.298 445.938 749.104C444.274 747.866 442.631 747.248 441.01 747.248C440.242 747.248 439.516 747.397 438.834 747.696C438.194 747.952 437.404 748.336 436.466 748.848C435.399 749.53 434.61 749.872 434.098 749.872C433.884 749.872 433.692 749.808 433.522 749.68C433.394 749.509 433.33 749.317 433.33 749.104C433.33 747.397 434.076 746.074 435.57 745.136C437.106 744.197 438.962 743.77 441.138 743.856C444.124 744.026 446.855 745.306 449.33 747.696C451.804 750.042 453.746 752.965 455.154 756.464C456.604 759.962 457.33 763.397 457.33 766.768C457.33 767.322 457.287 768.112 457.202 769.136L455.154 769.008C453.532 765.722 451.442 763.397 448.882 762.032C446.364 760.624 443.826 759.92 441.266 759.92C437.98 759.92 435.634 760.41 434.226 761.392C432.818 762.373 432.114 763.802 432.114 765.68C432.114 767.642 433.095 769.221 435.058 770.416C437.02 771.61 439.538 772.208 442.61 772.208C444.316 772.208 445.682 772.122 446.706 771.952C447.73 771.738 448.796 771.461 449.906 771.12C450.802 770.821 451.591 770.608 452.274 770.48C452.956 770.352 453.831 770.288 454.898 770.288C456.092 770.288 456.839 770.373 457.138 770.544C457.479 770.714 457.65 771.098 457.65 771.696C457.65 772.122 456.775 772.656 455.026 773.296C453.276 773.936 451.314 774.512 449.138 775.024C446.962 775.536 445.468 775.792 444.658 775.792ZM470.324 798.576C469.471 798.576 468.447 796.293 467.252 791.728C466.1 787.162 465.055 782.085 464.116 776.496C463.22 770.949 462.772 767.45 462.772 766C462.772 761.69 464.223 758.554 467.124 756.592C470.025 754.586 473.759 753.584 478.324 753.584C480.756 753.584 483.06 754.096 485.236 755.12C487.412 756.101 489.161 757.53 490.484 759.408C491.807 761.242 492.468 763.376 492.468 765.808C492.468 768.837 491.401 770.97 489.268 772.208C487.177 773.445 484.532 774.064 481.332 774.064C478.004 774.064 475.167 773.509 472.82 772.4C470.516 771.248 469.364 769.69 469.364 767.728L469.428 767.088C469.727 766.746 470.047 766.576 470.388 766.576C470.687 766.576 471.007 766.704 471.348 766.96C471.732 767.173 472.137 767.429 472.564 767.728C473.887 768.709 475.188 769.498 476.468 770.096C477.791 770.693 479.433 770.992 481.396 770.992C484.084 770.992 485.983 770.522 487.092 769.584C488.244 768.602 488.82 767.066 488.82 764.976C488.82 763.44 488.308 762.074 487.284 760.88C486.26 759.685 484.937 758.768 483.316 758.128C481.695 757.488 480.031 757.168 478.324 757.168C474.356 757.168 471.369 758.021 469.364 759.728C467.359 761.392 466.463 764.186 466.676 768.112C467.06 774.768 467.657 780.357 468.468 784.88C469.321 789.402 470.793 793.242 472.884 796.4L472.948 796.528C472.948 796.613 472.841 796.698 472.628 796.784C472.457 796.912 472.329 797.018 472.244 797.104C471.732 797.914 471.092 798.405 470.324 798.576ZM505.137 798.576C504.283 798.576 503.259 796.293 502.065 791.728C500.913 787.162 499.867 782.085 498.929 776.496C498.033 770.949 497.585 767.45 497.585 766C497.585 761.69 499.035 758.554 501.937 756.592C504.838 754.586 508.571 753.584 513.137 753.584C515.569 753.584 517.873 754.096 520.049 755.12C522.225 756.101 523.974 757.53 525.297 759.408C526.619 761.242 527.281 763.376 527.281 765.808C527.281 768.837 526.214 770.97 524.081 772.208C521.99 773.445 519.345 774.064 516.145 774.064C512.817 774.064 509.979 773.509 507.633 772.4C505.329 771.248 504.177 769.69 504.177 767.728L504.241 767.088C504.539 766.746 504.859 766.576 505.201 766.576C505.499 766.576 505.819 766.704 506.161 766.96C506.545 767.173 506.95 767.429 507.377 767.728C508.699 768.709 510.001 769.498 511.281 770.096C512.603 770.693 514.246 770.992 516.209 770.992C518.897 770.992 520.795 770.522 521.905 769.584C523.057 768.602 523.633 767.066 523.633 764.976C523.633 763.44 523.121 762.074 522.097 760.88C521.073 759.685 519.75 758.768 518.129 758.128C516.507 757.488 514.843 757.168 513.137 757.168C509.169 757.168 506.182 758.021 504.177 759.728C502.171 761.392 501.275 764.186 501.489 768.112C501.873 774.768 502.47 780.357 503.281 784.88C504.134 789.402 505.606 793.242 507.697 796.4L507.761 796.528C507.761 796.613 507.654 796.698 507.441 796.784C507.27 796.912 507.142 797.018 507.057 797.104C506.545 797.914 505.905 798.405 505.137 798.576Z" fill="white"/>
<rect x="344.416" y="156.384" width="243.898" height="60.7361" rx="7" fill="#FFFDFD"/>
<line x1="302.509" y1="462.586" x2="675.08" y2="462.586" stroke="white" stroke-width="12"/>
<line y1="-6.5" x2="372.584" y2="-6.5" transform="matrix(0.999959 -0.0090327 0.00795037 0.999969 302.509 690.707)" stroke="white" stroke-width="13"/>
<line y1="-4" x2="112.137" y2="-4" transform="matrix(0.99955 -0.0300119 0.0264182 0.999651 431.961 818.594)" stroke="white" stroke-width="8"/>
<line y1="-5" x2="642.807" y2="-5" transform="matrix(0.00491184 0.999988 -0.999984 0.00558055 286.722 216.177)" stroke="white" stroke-width="10"/>
<line y1="-5" x2="504.889" y2="-5" transform="matrix(0.999687 -0.0250305 0.0250476 0.999686 231.918 286.027)" stroke="white" stroke-width="10"/>
<ellipse cx="245.451" cy="357.203" rx="13.2305" ry="14.4682" fill="white"/>
<ellipse cx="245.451" cy="553.971" rx="13.2305" ry="14.4682" fill="white"/>
<ellipse cx="245.451" cy="650.04" rx="13.2305" ry="14.4682" fill="white"/>
<ellipse cx="245.451" cy="756.526" rx="13.2305" ry="14.4682" fill="white"/>
</svg>
